<svg version="1.2" xmlns="http://www.w3.org/2000/svg" viewBox="0 0 440 101" width="440" height="101">
	<style>
		.s0 { fill: #ffffff } 
	</style>
	<path class="s0" d="m243.62 2.49h27.06l-13.62 97.13h-27.06zm-34.12 0l-18.26 55.95-7.97-55.95h-18.93l-23.9 55.78-2.99-55.78h-26.23l9.13 97.13h21.75l26.89-61.43 9.47 61.43h21.41l35.37-97.13zm227.21 56.45h-64.26c0.34 12.62 7.89 20.92 19.01 20.92 8.39 0 15.03-4.48 20.18-13.03l21.69 9.86c-7.46 14.68-23.16 24.25-42.53 24.25-26.4 0-43.91-17.76-43.91-46.32 0-31.38 20.58-53.62 49.64-53.62 25.57 0 41.67 17.26 41.67 44.16 0 4.48-0.5 8.96-1.49 13.78zm-24.08-18.6c0-11.29-6.31-18.42-16.43-18.42-10.13 0-19.1 7.47-21.42 18.42zm-386.01-8.58l-27.62 32.28h49.32l5.55-15.22h-21.14l12.92-14.93 0.04-0.4-8.4-14.46h37.78l-29.29 80.59h20.04l35.37-97.13h-91.37l16.79 29.27zm288.05-9.84c9.55 0 17.92 5.13 25.22 13.92l3.84-27.37c-6.81-4.61-16.02-7.47-28.23-7.47-24.24 0-37.85 14.19-37.85 32.21 0 12.49 6.97 20.13 18.43 25.06l5.48 2.5c10.21 4.35 12.95 6.51 12.95 11.12 0 4.61-4.61 7.8-11.62 7.8-11.59 0.04-20.97-5.89-28.02-16.02l-3.91 27.9c8.03 6.13 18.34 9.37 31.93 9.37 23.03 0 37.19-13.28 37.19-31.71 0-12.53-5.57-20.58-19.6-26.89l-5.97-2.83c-8.3-3.69-11.13-5.72-11.13-9.79 0-4.4 3.86-7.8 11.29-7.8z"/>
</svg>